<?xml version="1.0" encoding="UTF-8"?><svg id="Layer_1" xmlns="http://www.w3.org/2000/svg" viewBox="0 0 500 500"><defs><style>.cls-1{fill:#764abb;}</style></defs><path class="cls-1" d="m315.49,313.94c12.53-1.3,22.03-12.1,21.6-25.06-.43-12.96-11.23-23.33-24.19-23.33h-.86c-13.39.43-23.76,11.67-23.33,25.06.43,6.48,3.02,12.1,6.91,15.99-14.69,28.95-37.15,50.12-70.85,67.83-22.9,12.1-46.66,16.42-70.42,13.39-19.44-2.59-34.56-11.23-44.07-25.49-13.82-21.17-15.12-44.07-3.45-66.97,8.21-16.42,21.17-28.52,29.38-34.56-1.73-5.62-4.32-15.12-5.62-22.03-62.65,45.36-56.16,106.72-37.15,135.66,14.26,21.6,43.2,35,75.17,35,8.64,0,17.28-.86,25.92-3.02,55.3-10.8,97.21-43.64,120.97-92.46h0Zm76.04-53.57c-32.84-38.45-81.22-59.62-136.52-59.62h-6.91c-3.89-7.78-12.1-12.96-21.17-12.96h-.86c-13.39.43-23.76,11.67-23.33,25.06.43,12.96,11.23,23.33,24.19,23.33h.86c9.5-.43,17.71-6.48,21.17-14.69h7.78c32.84,0,63.94,9.5,92.02,28.08,21.6,14.26,37.15,32.84,45.79,55.3,7.34,18.15,6.91,35.86-.86,50.98-12.1,22.9-32.4,35.43-59.19,35.43-17.28,0-33.7-5.19-42.34-9.07-4.75,4.32-13.39,11.23-19.44,15.55,18.58,8.64,37.59,13.39,55.73,13.39,41.48,0,72.15-22.9,83.82-45.8,12.53-25.06,11.66-68.26-20.74-104.99h0Zm-219.47,60.92c.43,12.96,11.23,23.33,24.19,23.33h.86c13.39-.43,23.76-11.67,23.33-25.06-.43-12.96-11.23-23.33-24.19-23.33h-.86c-.86,0-2.16,0-3.02.43-17.71-29.38-25.06-61.35-22.47-95.91,1.73-25.92,10.37-48.39,25.49-66.97,12.53-15.99,36.72-23.76,53.14-24.19,45.79-.86,65.24,56.17,66.53,79.06,5.62,1.3,15.12,4.32,21.6,6.48-5.19-69.99-48.39-106.28-89.86-106.28-38.88,0-74.74,28.08-89,69.56-19.87,55.3-6.91,108.44,17.28,150.35-2.16,3.02-3.46,7.78-3.02,12.53h0Z"/></svg>