<?xml version="1.0" encoding="UTF-8"?><svg id="Layer_1" xmlns="http://www.w3.org/2000/svg" viewBox="0 0 500 500"><defs><style>.cls-1{fill:#ce6499;}</style></defs><path class="cls-1" d="m401.03,273.29c-14.63.08-27.31,3.6-37.93,8.83-3.92-7.77-7.85-14.55-8.5-19.62-.74-5.89-1.64-9.48-.74-16.51.9-7.03,4.99-17.01,4.99-17.82-.08-.74-.9-4.33-9.32-4.41-8.42-.08-15.7,1.64-16.51,3.84s-2.45,7.28-3.52,12.51c-1.47,7.69-16.84,34.91-25.59,49.22-2.86-5.56-5.31-10.46-5.81-14.39-.73-5.89-1.64-9.48-.73-16.51.9-7.03,4.99-17.01,4.99-17.82-.08-.74-.9-4.33-9.32-4.41-8.42-.08-15.7,1.64-16.51,3.84s-1.72,7.44-3.52,12.51c-1.72,5.07-22.16,50.52-27.47,62.38-2.7,6.05-5.07,10.87-6.79,14.14-1.72,3.27-.08.25-.25.57-1.47,2.78-2.29,4.33-2.29,4.33v.08c-1.14,2.04-2.37,4.01-2.94,4.01-.41,0-1.23-5.48.16-13,3.02-15.78,10.38-40.39,10.3-41.29,0-.41,1.39-4.74-4.74-6.95-5.97-2.21-8.09,1.47-8.58,1.47s-.9,1.31-.9,1.31c0,0,6.62-27.71-12.67-27.71-12.1,0-28.78,13.16-37.04,25.18-5.23,2.86-16.35,8.91-28.12,15.37-4.5,2.45-9.16,5.07-13.57,7.44l-.9-.98c-23.38-24.94-66.63-42.59-64.83-76.11.65-12.18,4.91-44.31,83.06-83.23,64.01-31.88,115.28-23.14,124.19-3.68,12.67,27.8-27.39,79.47-93.94,86.91-25.34,2.86-38.67-6.95-42.02-10.63-3.52-3.84-4.01-4.01-5.31-3.27-2.13,1.14-.82,4.58,0,6.62,1.96,5.15,10.14,14.31,24.04,18.89,12.18,4.01,41.94,6.21,77.91-7.69,40.31-15.62,71.78-58.95,62.54-95.16-9.4-36.87-70.56-48.97-128.36-28.45-34.42,12.26-71.7,31.39-98.52,56.49-31.88,29.76-36.95,55.76-34.83,66.55,7.44,38.51,60.5,63.61,81.76,82.16-1.06.57-2.04,1.14-2.94,1.64-10.63,5.23-51.1,26.41-61.23,48.81-11.45,25.34,1.8,43.58,10.63,46.03,27.31,7.6,55.27-6.05,70.39-28.53,15.04-22.48,13.24-51.67,6.3-65l-.25-.49,8.34-4.91c5.4-3.19,10.71-6.13,15.37-8.67-2.62,7.11-4.5,15.53-5.48,27.8-1.14,14.39,4.74,33.03,12.51,40.39,3.43,3.19,7.52,3.27,10.06,3.27,8.99,0,13.08-7.44,17.58-16.35,5.56-10.87,10.46-23.46,10.46-23.46,0,0-6.13,34.09,10.63,34.09,6.13,0,12.26-7.93,15.04-12.02v.08s.16-.25.49-.82c.34-.51.67-1.02.98-1.55v-.16c2.45-4.25,7.93-13.98,16.11-30.09,10.55-20.77,20.68-46.76,20.68-46.76,0,0,.98,6.38,4.01,16.84,1.8,6.21,5.72,13,8.75,19.62-2.45,3.43-3.92,5.4-3.92,5.4l.08.08c-1.96,2.62-4.17,5.4-6.46,8.18-8.34,9.97-18.31,21.34-19.62,24.61-1.55,3.84-1.23,6.7,1.8,8.99,2.21,1.64,6.13,1.96,10.3,1.64,7.52-.49,12.75-2.37,15.37-3.52,4.09-1.47,8.75-3.68,13.24-6.95,8.18-6.05,13.16-14.63,12.67-26.08-.25-6.3-2.29-12.51-4.82-18.4.74-1.06,1.47-2.13,2.21-3.27,12.92-18.89,22.89-39.65,22.89-39.65,0,0,.98,6.38,4.01,16.84,1.55,5.31,4.66,11.12,7.44,16.84-12.1,9.89-19.7,21.34-22.32,28.86-4.82,13.9-1.06,20.19,6.05,21.67,3.19.65,7.77-.82,11.2-2.29,4.25-1.39,9.4-3.76,14.14-7.28,8.18-6.05,16.02-14.47,15.62-25.83-.25-5.23-1.64-10.38-3.52-15.29,10.3-4.25,23.63-6.7,40.55-4.66,36.38,4.25,43.58,26.98,42.19,36.46-1.39,9.48-8.99,14.72-11.53,16.35-2.53,1.55-3.35,2.13-3.11,3.27.33,1.72,1.47,1.64,3.68,1.31,3.02-.49,19.13-7.77,19.78-25.26.98-22.49-20.36-47.01-58.21-46.77h0Zm-280.59,94.59c-12.02,13.16-28.94,18.15-36.14,13.9-7.77-4.5-4.74-23.87,10.06-37.85,8.99-8.5,20.68-16.35,28.37-21.17,1.72-1.06,4.33-2.62,7.44-4.5.49-.33.82-.49.82-.49.57-.33,1.23-.74,1.88-1.14,5.48,19.95.25,37.44-12.43,51.26h0Zm87.89-59.76c-4.17,10.22-13,36.46-18.31,34.99-4.58-1.23-7.36-21.09-.9-40.71,3.27-9.89,10.22-21.67,14.31-26.24,6.62-7.36,13.82-9.81,15.62-6.79,2.13,3.93-8.09,32.38-10.71,38.75Zm72.52,34.66c-1.8.9-3.43,1.55-4.17,1.06-.57-.33.73-1.55.73-1.55,0,0,9.07-9.73,12.67-14.23,2.04-2.62,4.5-5.64,7.11-9.07v.98c0,11.77-11.28,19.62-16.35,22.81h0Zm55.92-12.75c-1.31-.98-1.14-4.01,3.27-13.49,1.72-3.76,5.64-10.06,12.43-16.02.82,2.45,1.31,4.82,1.23,7.03-.08,14.72-10.55,20.19-16.92,22.48Z"/></svg>