<?xml version="1.0" encoding="UTF-8"?><svg id="Layer_1" xmlns="http://www.w3.org/2000/svg" viewBox="0 0 500 500"><defs><style>.cls-1{fill:#1266a8;}</style></defs><path class="cls-1" d="m101.23,311.03c.32.73.69,1.4,1.08,2.08.18.39.44.8.66,1.17.37.73.76,1.43,1.14,2.13l2.2,3.71c.41.69.8,1.36,1.26,2.04.77,1.32,1.69,2.61,2.49,3.93.37.55.7,1.1,1.11,1.64,1.54,2.4,2.95,4.4,4.45,6.33,1.07,1.45,2.13,2.86,3.29,4.28.38.53.8,1.07,1.19,1.6l3.1,3.76c.38.44.76.94,1.17,1.39,1.38,1.66,2.84,3.26,4.3,4.89,0,.03.04.06.07.1,1.81,2.27,3.76,4.3,5.9,6.09l.06.06c1.12,1.15,2.25,2.29,3.44,3.41l1.42,1.36c1.56,1.46,3.12,2.91,4.76,4.31.03,0,.04.03.07.04l.8.7c1.43,1.25,2.88,2.49,4.35,3.64l1.76,1.47c1.19.95,2.43,1.85,3.65,2.79l1.91,1.46c1.31.98,2.7,1.94,4.03,2.89.49.35.98.7,1.49,1.03l.41.32,3.95,2.58,1.69,1.12c2.06,1.32,4.11,2.56,6.16,3.79.59.29,1.18.62,1.73.95,1.52.87,3.09,1.76,4.62,2.56.84.48,1.71.88,2.58,1.32,1.05.59,2.15,1.17,3.27,1.76.31.1.56.2.81.34l.06-.06c.46.21.9.44,1.35.66,1.69.84,3.44,1.64,5.27,2.43.34.14.7.28,1.07.48,2.02.88,4.04,1.73,6.14,2.54.48.14.98.38,1.47.56,1.9.72,3.85,1.45,5.79,2.13l.7.25c2.15.73,4.27,1.43,6.46,2.09.51.14,1.03.32,1.56.46,2.23.67,4.4,1.47,6.66,1.9,144.26,26.16,186.18-86.31,186.18-86.31-35.22,45.64-97.72,57.67-156.91,44.28-2.19-.51-4.38-1.21-6.6-1.85-3.13-.89-6.24-1.87-9.31-2.93l1.33.41-.87-.34c-1.91-.65-3.75-1.36-5.62-2.08-.46-.19-.92-.37-1.39-.53l-.15-.04c-2.06-.83-4.07-1.67-6.07-2.56-.44-.14-.8-.34-1.24-.51-2.36-1.03-4.7-2.11-7.02-3.23l1.94.86c-.51-.22-1-.47-1.49-.73-1.32-.62-2.64-1.32-3.93-1.98-.98-.47-1.95-.96-2.91-1.49l.28.14c-1.59-.84-3.17-1.76-4.77-2.61-.48-.34-1.03-.62-1.57-.93-2.38-1.38-4.73-2.82-7.05-4.3l.88.53c-.59-.37-1.18-.76-1.74-1.17l.08.06c-1.51-.93-2.99-1.9-4.44-2.92-.48-.31-.91-.65-1.4-.98-1.51-1.03-3-2.1-4.47-3.2l.34.24c-.59-.48-1.22-.93-1.85-1.39-1.24-.97-2.49-1.9-3.72-2.91l-1.66-1.32c-1.77-1.41-3.5-2.85-5.2-4.34h-.01s-4.87-4.44-4.87-4.44l-1.4-1.32c-1.15-1.17-2.33-2.27-3.51-3.43l-1.36-1.4c-1.45-1.44-2.87-2.91-4.25-4.42l-.08-.1-.24-.2c-1.49-1.63-2.95-3.29-4.4-4.96-.38-.44-.73-.9-1.12-1.36l-3.19-3.86c-1.44-1.8-2.84-3.64-4.21-5.49l-.56-.79c-32.83-44.6-44.71-106.15-18.44-156.65l-23.2,29.34c-29.84,42.68-26.15,98.17-3.33,143.49.52,1.11,1.1,2.15,1.66,3.2h0Z"/><path d="m201.73,249.55l-.15-.22-.13-.17.28.39Z"/><path class="cls-1" d="m217.43,267.97l1.26,1.26c1.6,1.54,3.24,3.05,4.91,4.55l.21.18c1.69,1.49,3.58,3.05,5.53,4.56l.29.22c.48.32.88.7,1.35,1.03,1.97,1.52,3.95,2.96,6.01,4.41l.21.13c.87.63,1.8,1.21,2.78,1.83.39.25.84.59,1.26.84,1.49.95,2.95,1.84,4.45,2.75.24.1.45.22.67.32,1.26.77,2.64,1.52,3.96,2.19.46.28.91.49,1.39.76.94.46,1.87.95,2.77,1.43l.45.2c1.9.93,3.83,1.8,5.73,2.65.48.18.88.34,1.29.53,1.56.67,3.15,1.32,4.7,1.91.7.24,1.36.52,2.02.73,1.43.53,2.93,1.03,4.35,1.52l1.97.63c2.05.63,4.13,1.46,6.31,1.8,111.4,18.34,137.18-67,137.18-67-23.21,33.24-68.14,49.08-116.01,36.71-2.39-.6-4.76-1.28-7.11-2.04l.8.22c-.67-.18-1.26-.39-1.91-.59-1.46-.51-2.96-1-4.38-1.52l-2.02-.76c-1.57-.63-3.17-1.22-4.7-1.9-.48-.21-.91-.35-1.28-.56-1.97-.88-3.95-1.76-5.87-2.68l-2.89-1.5-1.67-.84c-1.29-.67-2.49-1.38-3.72-2.09-.32-.15-.62-.32-.91-.51h.04c-1.49-.91-3.03-1.81-4.47-2.75-.48-.27-.91-.59-1.36-.87l-2.92-1.9c-2.02-1.4-4-2.91-6.01-4.37-.45-.41-.88-.74-1.32-1.11-21.05-16.47-37.65-38.98-45.53-64.47-8.3-26.5-6.47-56.21,7.86-80.32l-17.62,24.83c-21.64,30.91-20.42,72.22-3.57,104.91,3.08,6.04,6.19,11.14,9.63,15.99,3.2,4.58,6.74,9.94,11.01,13.62,1.52,1.73,3.15,3.37,4.84,5.04h0Z"/><path d="m115.69,334.14l-.06-.08-.1-.13.15.21Zm58.39-10.45l.14.1.03.04-.17-.14Z"/><path class="cls-1" d="m273.39,101.53c-12.76,18.63-13.99,41.78-5.2,62.32,9.34,21.82,28.42,38.95,50.67,47.07.91.35,1.8.65,2.74.98l1.24.38c1.29.41,2.6.88,3.93,1.18,61.52,11.81,78.18-31.43,82.66-37.79-14.65,20.92-39.21,25.95-69.34,18.66-2.62-.64-5.2-1.44-7.72-2.39l.46.15c-3.14-1.09-6.22-2.35-9.21-3.79l.53.24c-5.76-2.81-10.7-5.84-15.29-9.32-26.93-20.36-43.59-59.13-26.01-90.72l-9.45,13.02Z"/></svg>